<svg xmlns="http://www.w3.org/2000/svg" xmlns:xlink="http://www.w3.org/1999/xlink" version="1.1" width="1000pt" height="1000pt" viewBox="0 0 1000 1000">
<defs>
<clipPath id="clip_0">
<path d="M423.746 510H848.129V515H423.746Z"/>
</clipPath>
<clipPath id="clip_1">
<path d="M424.801 461.605H847.074V505.87803H424.801Z"/>
</clipPath>
<clipPath id="clip_2">
<path d="M423.746 519.277H671.66006V537.699H423.746Z"/>
</clipPath>
<clipPath id="clip_3">
<path d="M151.023 401.301H413.29298V562H151.023Z"/>
</clipPath>
</defs>
<g>
<path d="M0 0H1000V1000H0Z" fill="#1b4571"/>
<g clip-path="url(#clip_0)">
<path d="M427.988 510.578H843.883C846.227 510.578 848.129 511.473 848.129 512.574 848.129 513.68 846.227 514.574 843.883 514.574H427.988C425.645 514.574 423.746 513.68 423.746 512.574 423.746 511.473 425.645 510.578 427.988 510.578ZM427.988 510.578" fill="#ffffff"/>
</g>
<g clip-path="url(#clip_1)">
<path d="M449.973 461.605C452.184 461.605 454.754 461.871 457.68 462.406 460.605 462.941 462.75 463.516 464.105 464.121V476.113H457.254C455.93 473.578 454.391 471.723 452.625 470.543 450.855 469.367 448.938 468.777 446.867 468.777 445.117 468.777 443.523 469.355 442.082 470.512 440.633 471.676 439.488 473.273 438.656 475.309 437.812 477.344 437.391 479.609 437.391 482.109 437.391 484.926 437.82 487.504 438.676 489.84 439.531 492.18 440.836 494.047 442.582 495.438 444.332 496.828 446.492 497.523 449.062 497.523 452.453 497.523 457.234 496.027 463.41 493.027L465.871 496.988 456.02 504.645C454.309 505.145 452.676 505.465 451.129 505.609 449.57 505.75 447.883 505.824 446.062 505.824 441.887 505.824 438.195 504.914 434.98 503.094 431.77 501.273 429.273 498.766 427.488 495.566 425.703 492.375 424.812 488.746 424.812 484.676 424.812 480.5 426.141 476.637 428.805 473.082 431.461 469.535 434.762 466.734 438.707 464.676 442.648 462.629 446.402 461.605 449.973 461.605ZM495.582 461.605C499.863 461.605 503.648 462.516 506.93 464.336 510.215 466.156 512.75 468.672 514.531 471.883 516.316 475.094 517.211 478.734 517.211 482.805 517.211 486.98 515.859 490.832 513.164 494.367 510.473 497.898 507.129 500.691 503.129 502.738 499.133 504.797 495.352 505.824 491.781 505.824 487.5 505.824 483.723 504.922 480.453 503.113 477.191 501.316 474.656 498.809 472.852 495.598 471.055 492.387 470.152 488.746 470.152 484.676 470.152 480.5 471.5 476.637 474.191 473.082 476.887 469.535 480.234 466.734 484.234 464.676 488.23 462.629 492.012 461.605 495.582 461.605ZM492.477 468.777C490.691 468.777 489.059 469.355 487.574 470.512 486.098 471.676 484.918 473.273 484.039 475.309 483.168 477.344 482.734 479.609 482.734 482.109 482.734 485.141 483.18 487.906 484.07 490.406 484.965 492.902 486.328 494.902 488.164 496.402 490.004 497.898 492.246 498.648 494.887 498.648 496.672 498.648 498.301 498.066 499.777 496.906 501.262 495.75 502.441 494.152 503.312 492.117 504.191 490.086 504.629 487.816 504.629 485.32 504.629 482.25 504.184 479.465 503.289 476.969 502.398 474.469 501.043 472.48 499.223 470.996 497.402 469.516 495.152 468.777 492.477 468.777ZM546.117 462.141C550.328 462.141 554.047 463.02 557.273 464.785 560.508 466.555 563.016 469.012 564.801 472.152 566.586 475.293 567.477 478.844 567.477 482.805 567.477 486.871 566.145 490.625 563.484 494.066 560.828 497.516 557.527 500.246 553.582 502.258 549.641 504.277 545.887 505.289 542.316 505.289 540.746 505.289 539.16 505.199 537.551 505.02 534.984 504.84 532.965 504.754 531.504 504.754H522.027V500.953L527.059 496.988V468.777L520.957 466.957 523.098 462.676H531.449C534.695 462.676 537.891 462.566 541.031 462.355 543.316 462.211 545.012 462.141 546.117 462.141ZM543.816 499.719C545.852 499.719 547.711 499.094 549.406 497.848 551.102 496.598 552.441 494.875 553.418 492.676 554.406 490.484 554.898 488.031 554.898 485.32 554.898 482.07 554.422 479.117 553.473 476.453 552.531 473.801 551.086 471.676 549.137 470.086 547.195 468.5 544.797 467.707 541.941 467.707 540.766 467.707 539.656 468.012 538.621 468.617V498.863C540.156 499.434 541.887 499.719 543.816 499.719ZM611.578 505.715 607.137 504.754H572.285V500.953L577.316 496.988V468.617L571.215 466.957 573.355 462.676H606.602L611.043 461.711V476.164L607.297 477.773 600.551 467.762H588.828V480.715H594.02L597.926 475.203H601.727V490.406L597.445 492.547 593.859 485.801H588.828V499.668H600.07L607.832 488.586 611.578 490.191ZM642.094 461.605C644.305 461.605 646.875 461.871 649.801 462.406 652.727 462.941 654.867 463.516 656.227 464.121V476.113H649.371C648.051 473.578 646.508 471.723 644.738 470.543 642.973 469.367 641.059 468.777 638.988 468.777 637.238 468.777 635.641 469.355 634.191 470.512 632.75 471.676 631.609 473.273 630.777 475.309 629.934 477.344 629.512 479.609 629.512 482.109 629.512 484.926 629.941 487.504 630.797 489.84 631.652 492.18 632.957 494.047 634.703 495.438 636.453 496.828 638.613 497.523 641.184 497.523 644.574 497.523 649.355 496.027 655.527 493.027L657.992 496.988 648.141 504.645C646.43 505.145 644.793 505.465 643.238 505.609 641.688 505.75 640.004 505.824 638.184 505.824 634.008 505.824 630.316 504.914 627.102 503.094 623.891 501.273 621.395 498.766 619.609 495.566 617.824 492.375 616.93 488.746 616.93 484.676 616.93 480.5 618.258 476.637 620.914 473.082 623.578 469.535 626.879 466.734 630.816 464.676 634.766 462.629 638.523 461.605 642.094 461.605ZM712.273 500.469 710.133 504.754H689.578V500.953L694.609 496.562V486.336H678.281V498.863L684.438 500.469 682.297 504.754H661.738V500.953L666.77 496.562V468.617L660.668 467.012 662.809 462.73H683.367V466.531L678.281 470.973V481.305H694.609V468.617L688.508 467.012 690.648 462.73H711.203V466.531L706.117 470.973V498.863ZM760.871 466.477 755.785 470.438V488.156C755.785 491.906 754.832 495.117 752.93 497.793 751.023 500.469 748.66 502.477 745.84 503.809 743.016 505.152 740.262 505.824 737.586 505.824 733.988 505.824 730.77 505.117 727.93 503.703 725.086 502.297 722.875 500.352 721.289 497.867 719.707 495.391 718.914 492.602 718.914 489.496V468.402L712.809 466.957 714.953 462.676H735.508V466.477L730.422 470.438V487.996C730.422 491.352 731.316 493.965 733.098 495.832 734.883 497.711 737.598 498.648 741.238 498.648 742.629 498.648 744.008 498.246 745.379 497.441 746.758 496.641 747.898 495.473 748.805 493.938 749.711 492.402 750.164 490.602 750.164 488.531V469.207L743.539 466.957 745.68 462.676H760.871ZM780.09 498.809 786.246 500.418 784.105 504.699H763.551V500.898L768.582 496.508V468.562L762.477 466.957 764.621 462.676H785.176V466.477L780.09 470.918ZM810.551 500.418 808.41 504.699H796.043L781.59 483.605 796.473 470.438 790.207 466.902 792.352 462.621H809.426V466.422L792.992 480.93 804.879 497.848ZM834.855 496.348C834.855 495.312 834.445 494.312 833.625 493.352 832.805 492.387 831.785 491.492 830.574 490.672 829.359 489.852 827.684 488.816 825.539 487.566 822.898 486.035 820.777 484.703 819.172 483.574 817.562 482.453 816.191 481.145 815.047 479.645 813.906 478.145 813.336 476.488 813.336 474.668 813.336 472.883 814.203 470.961 815.938 468.906 817.664 466.859 819.777 465.125 822.273 463.715 824.773 462.309 827.074 461.605 829.18 461.605 831.715 461.605 834.668 461.871 838.035 462.406 841.41 462.941 843.887 463.516 845.457 464.121V476.648H838.602C837.281 473.793 835.793 471.555 834.137 469.934 832.477 468.309 830.75 467.492 828.969 467.492 827.895 467.492 827.059 467.832 826.449 468.512 825.844 469.188 825.539 470.062 825.539 471.133 825.539 472.277 825.957 473.352 826.793 474.367 827.637 475.387 828.688 476.316 829.953 477.152 831.223 477.992 832.945 479.039 835.125 480.289 837.691 481.75 839.773 483.023 841.367 484.109 842.949 485.203 844.297 486.48 845.402 487.941 846.508 489.406 847.062 491.031 847.062 492.812 847.062 494.598 846.145 496.516 844.309 498.562 842.469 500.621 840.227 502.352 837.586 503.758 834.945 505.172 832.535 505.875 830.359 505.875 827.719 505.875 824.578 505.609 820.938 505.074 817.297 504.539 814.672 503.969 813.066 503.359V490.832H819.918C821.348 493.723 823.008 495.973 824.898 497.578 826.789 499.184 828.699 499.988 830.625 499.988 831.91 499.988 832.938 499.633 833.699 498.918 834.469 498.203 834.855 497.348 834.855 496.348ZM834.855 496.348" fill="#ffffff"/>
</g>
<g clip-path="url(#clip_2)">
<path d="M423.746 520.602H425.402V528.301C425.402 528.914 425.504 529.445 425.707 529.895 425.91 530.344 426.176 530.711 426.5 531.004 426.824 531.293 427.188 531.508 427.586 531.648 427.988 531.785 428.391 531.852 428.789 531.852 429.195 531.852 429.582 531.781 429.945 531.637 430.312 531.496 430.633 531.281 430.906 530.996 431.18 530.711 431.398 530.355 431.562 529.93 431.727 529.504 431.805 529.008 431.805 528.438V520.602H433.332V528.418C433.332 528.762 433.289 529.121 433.203 529.488 433.121 529.859 432.992 530.219 432.816 530.566 432.648 530.918 432.43 531.25 432.164 531.566 431.898 531.883 431.586 532.16 431.223 532.395 430.863 532.633 430.453 532.82 429.992 532.957 429.527 533.098 429.012 533.164 428.441 533.164 427.75 533.164 427.113 533.059 426.535 532.84 425.961 532.621 425.469 532.305 425.055 531.891 424.641 531.477 424.32 530.969 424.09 530.363 423.863 529.754 423.746 529.066 423.746 528.293ZM436.578 532.996V524.027H437.832L438.086 525.586C438.281 525.398 438.508 525.207 438.762 525.004 439.016 524.801 439.289 524.613 439.586 524.445 439.879 524.273 440.195 524.133 440.527 524.027 440.859 523.914 441.203 523.859 441.551 523.859 441.965 523.859 442.336 523.938 442.664 524.098 442.996 524.254 443.277 524.477 443.512 524.762 443.742 525.047 443.922 525.387 444.051 525.773 444.18 526.168 444.242 526.594 444.242 527.059V532.996H442.633V527.211C442.633 526.883 442.586 526.594 442.496 526.344 442.402 526.09 442.273 525.883 442.109 525.715 441.945 525.551 441.75 525.426 441.523 525.344 441.301 525.258 441.055 525.215 440.789 525.215 440.32 525.215 439.879 525.336 439.465 525.586 439.047 525.836 438.621 526.164 438.184 526.57V532.996ZM447.219 532.996V519.445H448.824V532.996ZM458.871 531.324V532.234C458.656 532.387 458.41 532.52 458.133 532.637 457.855 532.75 457.566 532.848 457.266 532.926 456.969 533.008 456.668 533.066 456.363 533.105 456.062 533.145 455.785 533.164 455.523 533.164 454.945 533.164 454.402 533.07 453.883 532.879 453.363 532.688 452.91 532.406 452.523 532.031 452.133 531.66 451.82 531.199 451.59 530.648 451.359 530.098 451.242 529.465 451.242 528.746 451.242 528.012 451.367 527.34 451.609 526.734 451.855 526.133 452.184 525.617 452.598 525.191 453.008 524.766 453.484 524.438 454.023 524.207 454.559 523.977 455.125 523.859 455.719 523.859 456.199 523.859 456.645 523.941 457.062 524.102 457.473 524.262 457.836 524.504 458.141 524.824 458.449 525.148 458.691 525.551 458.867 526.031 459.039 526.512 459.125 527.074 459.125 527.719 459.125 527.848 459.121 528.004 459.113 528.184 459.102 528.363 459.078 528.551 459.043 528.746H452.918C452.918 529.234 453.004 529.668 453.176 530.047 453.348 530.43 453.59 530.75 453.906 531.012 454.215 531.273 454.59 531.473 455.023 531.609 455.457 531.742 455.938 531.812 456.461 531.812 456.594 531.812 456.75 531.805 456.938 531.793 457.121 531.781 457.324 531.762 457.535 531.727 457.75 531.691 457.973 531.645 458.203 531.578 458.434 531.516 458.656 531.43 458.871 531.324ZM452.918 527.75H457.605C457.605 527.328 457.547 526.953 457.43 526.633 457.309 526.305 457.148 526.031 456.945 525.812 456.742 525.594 456.508 525.426 456.238 525.316 455.973 525.203 455.684 525.145 455.379 525.145 455.039 525.145 454.723 525.215 454.426 525.352 454.125 525.492 453.863 525.68 453.641 525.918 453.418 526.152 453.242 526.43 453.113 526.746 452.984 527.062 452.918 527.398 452.918 527.75ZM466.469 531.66C466.328 531.777 466.156 531.926 465.957 532.094 465.758 532.266 465.531 532.43 465.277 532.59 465.031 532.746 464.758 532.883 464.461 532.996 464.164 533.109 463.848 533.164 463.516 533.164 463.219 533.164 462.926 533.113 462.641 533.008 462.355 532.902 462.102 532.746 461.883 532.543 461.664 532.336 461.488 532.082 461.355 531.777 461.223 531.473 461.156 531.125 461.156 530.73 461.156 530.488 461.188 530.242 461.246 529.992 461.305 529.746 461.402 529.508 461.543 529.277 461.684 529.051 461.871 528.836 462.098 528.633 462.328 528.434 462.609 528.262 462.945 528.109 463.281 527.961 463.68 527.844 464.137 527.762 464.59 527.676 465.113 527.633 465.707 527.633H466.469V526.855C466.469 526.594 466.422 526.359 466.332 526.152 466.242 525.945 466.117 525.766 465.957 525.617 465.797 525.465 465.605 525.352 465.383 525.27 465.16 525.188 464.91 525.145 464.641 525.145 464.438 525.145 464.223 525.168 463.992 525.215 463.766 525.258 463.535 525.324 463.309 525.406 463.082 525.492 462.863 525.594 462.652 525.707 462.445 525.816 462.262 525.941 462.105 526.078L461.953 525.992 461.613 524.758C461.941 524.578 462.258 524.43 462.559 524.312 462.863 524.199 463.156 524.105 463.438 524.039 463.715 523.969 463.98 523.922 464.234 523.898 464.488 523.871 464.734 523.859 464.965 523.859 466.016 523.859 466.797 524.078 467.309 524.516 467.82 524.953 468.074 525.609 468.074 526.48V530.898C468.074 530.973 468.082 531.059 468.094 531.164 468.105 531.27 468.129 531.371 468.172 531.465 468.215 531.562 468.277 531.645 468.359 531.711 468.441 531.777 468.551 531.812 468.691 531.812 468.773 531.812 468.879 531.797 469.008 531.773 469.137 531.746 469.266 531.703 469.395 531.641V532.539C469.125 532.727 468.852 532.875 468.578 532.992 468.305 533.109 468.043 533.164 467.789 533.164 467.555 533.164 467.367 533.121 467.215 533.027 467.066 532.934 466.945 532.812 466.844 532.668 466.746 532.52 466.668 532.355 466.613 532.18 466.555 532 466.508 531.828 466.469 531.66ZM466.469 530.578V528.613H465.828C465.164 528.613 464.641 528.66 464.246 528.754 463.855 528.848 463.559 528.973 463.352 529.125 463.148 529.281 463.012 529.461 462.945 529.664 462.879 529.867 462.848 530.078 462.848 530.297 462.848 530.535 462.883 530.746 462.949 530.93 463.02 531.117 463.113 531.277 463.234 531.41 463.355 531.543 463.5 531.645 463.668 531.711 463.836 531.777 464.02 531.812 464.219 531.812 464.371 531.812 464.527 531.793 464.688 531.754 464.848 531.719 465.02 531.652 465.203 531.562 465.387 531.469 465.582 531.344 465.789 531.188 465.992 531.027 466.219 530.824 466.469 530.578ZM470.875 532.59 471.215 531.234 471.367 531.137C471.578 531.254 471.805 531.359 472.043 531.449 472.281 531.547 472.516 531.625 472.746 531.688 472.977 531.746 473.203 531.793 473.426 531.828 473.648 531.863 473.855 531.879 474.047 531.879 474.312 531.879 474.555 531.848 474.777 531.785 474.996 531.723 475.184 531.637 475.336 531.523 475.492 531.41 475.613 531.273 475.699 531.117 475.789 530.961 475.832 530.785 475.832 530.594 475.832 530.352 475.766 530.148 475.629 529.988 475.492 529.828 475.316 529.688 475.094 529.574 474.875 529.457 474.625 529.359 474.344 529.273 474.062 529.188 473.773 529.102 473.48 529.012 473.188 528.922 472.898 528.82 472.617 528.707 472.336 528.594 472.086 528.453 471.867 528.281 471.645 528.105 471.469 527.898 471.332 527.652 471.195 527.41 471.129 527.109 471.129 526.754 471.129 526.355 471.215 525.984 471.391 525.633 471.566 525.281 471.812 524.973 472.125 524.711 472.441 524.449 472.82 524.242 473.266 524.09 473.707 523.938 474.199 523.859 474.742 523.859 474.871 523.859 475.023 523.863 475.207 523.875 475.387 523.887 475.578 523.906 475.781 523.934 475.984 523.957 476.191 523.992 476.402 524.031 476.613 524.078 476.82 524.129 477.016 524.188L476.68 525.508 476.473 525.629C476.316 525.543 476.145 525.469 475.953 525.406 475.766 525.344 475.574 525.297 475.379 525.258 475.184 525.223 474.992 525.195 474.809 525.176 474.621 525.156 474.461 525.145 474.316 525.145 474.059 525.145 473.82 525.172 473.613 525.23 473.398 525.285 473.215 525.367 473.062 525.469 472.91 525.578 472.793 525.703 472.711 525.852 472.625 526 472.582 526.172 472.582 526.363 472.582 526.613 472.652 526.816 472.785 526.98 472.922 527.145 473.102 527.285 473.328 527.398 473.555 527.516 473.809 527.617 474.094 527.703 474.379 527.785 474.668 527.871 474.969 527.961 475.27 528.051 475.559 528.152 475.844 528.266 476.129 528.379 476.383 528.523 476.609 528.699 476.836 528.871 477.016 529.086 477.152 529.336 477.285 529.59 477.352 529.895 477.352 530.254 477.352 530.68 477.258 531.066 477.07 531.422 476.883 531.777 476.625 532.086 476.293 532.344 475.965 532.602 475.574 532.805 475.133 532.949 474.691 533.094 474.215 533.164 473.707 533.164 473.273 533.164 472.809 533.113 472.316 533.012 471.824 532.91 471.344 532.77 470.875 532.59ZM479.773 532.996V519.445H481.379V525.484C481.582 525.305 481.809 525.117 482.055 524.926 482.305 524.734 482.574 524.559 482.859 524.402 483.148 524.242 483.449 524.113 483.766 524.012 484.082 523.91 484.406 523.859 484.746 523.859 485.152 523.859 485.52 523.938 485.848 524.09 486.18 524.25 486.465 524.465 486.699 524.742 486.938 525.023 487.117 525.359 487.246 525.75 487.371 526.145 487.438 526.578 487.438 527.059V532.996H485.828V527.191C485.828 526.867 485.781 526.578 485.688 526.328 485.598 526.082 485.469 525.875 485.309 525.711 485.148 525.543 484.957 525.418 484.73 525.336 484.504 525.254 484.262 525.215 484.004 525.215 483.527 525.215 483.082 525.336 482.656 525.586 482.234 525.836 481.809 526.164 481.379 526.57V532.996ZM490.406 532.996V524.027H492.012V532.996ZM491.215 522.086C491.074 522.086 490.941 522.059 490.816 522.008 490.695 521.957 490.59 521.887 490.5 521.797 490.41 521.707 490.34 521.602 490.285 521.48 490.234 521.359 490.211 521.227 490.211 521.078 490.211 520.934 490.238 520.793 490.293 520.66 490.348 520.531 490.426 520.422 490.52 520.324 490.613 520.227 490.723 520.152 490.848 520.102 490.977 520.047 491.109 520.02 491.25 520.02 491.387 520.02 491.516 520.047 491.637 520.102 491.758 520.152 491.863 520.227 491.953 520.324 492.043 520.422 492.113 520.531 492.164 520.656 492.215 520.785 492.242 520.918 492.242 521.059 492.242 521.211 492.211 521.352 492.156 521.48 492.098 521.605 492.023 521.715 491.93 521.801 491.836 521.891 491.727 521.957 491.605 522.008 491.48 522.059 491.352 522.086 491.215 522.086ZM495.012 532.996V524.027H496.266L496.52 525.586C496.715 525.398 496.941 525.207 497.195 525.004 497.449 524.801 497.727 524.613 498.02 524.445 498.316 524.273 498.629 524.133 498.961 524.027 499.297 523.914 499.637 523.859 499.988 523.859 500.398 523.859 500.77 523.938 501.102 524.098 501.43 524.254 501.711 524.477 501.945 524.762 502.18 525.047 502.359 525.387 502.484 525.773 502.613 526.168 502.676 526.594 502.676 527.059V532.996H501.07V527.211C501.07 526.883 501.023 526.594 500.93 526.344 500.84 526.09 500.711 525.883 500.547 525.715 500.383 525.551 500.188 525.426 499.961 525.344 499.738 525.258 499.492 525.215 499.227 525.215 498.758 525.215 498.316 525.336 497.898 525.586 497.48 525.836 497.055 526.164 496.621 526.57V532.996ZM510.094 533.5H508.004C507.859 533.574 507.699 533.668 507.535 533.773 507.367 533.883 507.215 534 507.074 534.133 506.934 534.266 506.816 534.414 506.719 534.57 506.625 534.734 506.574 534.902 506.574 535.078 506.574 535.258 506.629 535.43 506.742 535.586 506.848 535.75 507.012 535.891 507.223 536.008 507.434 536.125 507.695 536.219 508.004 536.289 508.316 536.359 508.668 536.395 509.07 536.395 509.527 536.395 509.934 536.348 510.297 536.258 510.66 536.168 510.965 536.047 511.211 535.891 511.461 535.73 511.648 535.551 511.777 535.34 511.906 535.137 511.973 534.918 511.973 534.688 511.973 534.48 511.922 534.301 511.82 534.148 511.719 534 511.582 533.879 511.41 533.781 511.238 533.688 511.039 533.617 510.809 533.57 510.578 533.523 510.344 533.5 510.094 533.5ZM506.844 533.336C506.672 533.277 506.508 533.207 506.355 533.125 506.203 533.039 506.07 532.945 505.957 532.84 505.844 532.734 505.754 532.617 505.691 532.484 505.625 532.352 505.594 532.211 505.594 532.059 505.594 531.871 505.641 531.691 505.734 531.527 505.828 531.359 505.949 531.199 506.098 531.047 506.246 530.891 506.418 530.742 506.605 530.605 506.797 530.465 506.988 530.332 507.184 530.203 506.559 529.898 506.102 529.5 505.809 529.004 505.52 528.508 505.375 527.969 505.375 527.387 505.375 527.027 505.43 526.688 505.531 526.371 505.637 526.059 505.781 525.77 505.965 525.504 506.152 525.242 506.367 525.012 506.617 524.809 506.867 524.605 507.133 524.434 507.422 524.293 507.707 524.152 508.008 524.043 508.32 523.969 508.637 523.895 508.945 523.859 509.258 523.859 509.629 523.859 509.988 523.906 510.34 524.004 510.691 524.098 510.984 524.223 511.223 524.375 511.312 524.324 511.422 524.277 511.555 524.234 511.684 524.188 511.824 524.148 511.973 524.121 512.117 524.094 512.266 524.07 512.418 524.055 512.566 524.039 512.707 524.027 512.836 524.027H514.355L514.02 525.297H512.023C512.062 525.32 512.121 525.383 512.199 525.488 512.273 525.59 512.348 525.727 512.422 525.895 512.5 526.059 512.566 526.254 512.629 526.477 512.688 526.695 512.719 526.93 512.719 527.176 512.719 527.633 512.609 528.062 512.391 528.469 512.176 528.871 511.891 529.219 511.535 529.52 511.184 529.82 510.781 530.055 510.328 530.23 509.871 530.402 509.406 530.492 508.934 530.492 508.812 530.492 508.688 530.484 508.562 530.473 508.438 530.465 508.305 530.449 508.164 530.434 508.062 530.496 507.953 530.566 507.84 530.645 507.723 530.723 507.621 530.809 507.527 530.902 507.434 530.996 507.359 531.094 507.297 531.199 507.234 531.301 507.203 531.41 507.203 531.523 507.203 531.703 507.285 531.852 507.453 531.965 507.617 532.078 507.844 532.133 508.129 532.133H510.523C510.93 532.133 511.312 532.184 511.676 532.289 512.039 532.395 512.352 532.543 512.621 532.738 512.887 532.934 513.102 533.164 513.258 533.438 513.414 533.707 513.492 534.004 513.492 534.332 513.492 534.715 513.383 535.105 513.164 535.504 512.945 535.902 512.625 536.266 512.207 536.594 511.793 536.918 511.281 537.184 510.672 537.391 510.066 537.594 509.375 537.699 508.598 537.699 508.086 537.699 507.605 537.648 507.164 537.555 506.719 537.457 506.336 537.324 506.012 537.148 505.691 536.973 505.434 536.762 505.246 536.516 505.062 536.266 504.969 535.988 504.969 535.684 504.969 535.5 505.004 535.32 505.074 535.145 505.145 534.969 505.234 534.805 505.344 534.656 505.457 534.504 505.578 534.359 505.715 534.223 505.855 534.086 505.992 533.965 506.133 533.855 506.27 533.742 506.402 533.645 506.531 533.559 506.656 533.473 506.762 533.398 506.844 533.336ZM506.898 527.125C506.898 527.43 506.949 527.715 507.055 527.98 507.164 528.246 507.312 528.473 507.504 528.668 507.691 528.863 507.918 529.016 508.184 529.125 508.449 529.238 508.738 529.293 509.055 529.293 509.352 529.293 509.633 529.242 509.891 529.141 510.152 529.039 510.379 528.898 510.574 528.719 510.766 528.535 510.918 528.316 511.031 528.059 511.141 527.801 511.191 527.516 511.191 527.203 511.191 526.898 511.141 526.613 511.035 526.352 510.926 526.09 510.773 525.863 510.582 525.676 510.391 525.484 510.164 525.336 509.902 525.227 509.637 525.117 509.344 525.062 509.027 525.062 508.73 525.062 508.453 525.109 508.195 525.211 507.941 525.309 507.715 525.445 507.516 525.621 507.324 525.801 507.172 526.02 507.062 526.273 506.953 526.531 506.898 526.816 506.898 527.125ZM520.707 530.746V525.316H518.898L519.035 524.488C519.473 524.395 519.824 524.281 520.09 524.145 520.355 524.004 520.574 523.832 520.746 523.625 520.918 523.414 521.062 523.164 521.18 522.863 521.293 522.57 521.426 522.215 521.57 521.805H522.316V524.027H525.566L525.227 525.316H522.316V530.324C522.316 530.594 522.355 530.824 522.441 531.012 522.52 531.199 522.633 531.355 522.777 531.477 522.926 531.594 523.105 531.68 523.312 531.73 523.523 531.785 523.754 531.812 524.004 531.812 524.266 531.812 524.523 531.785 524.781 531.738 525.039 531.691 525.281 531.625 525.512 531.539V532.457C525.156 532.688 524.785 532.863 524.395 532.98 524 533.105 523.602 533.164 523.195 533.164 522.816 533.164 522.477 533.109 522.172 533.004 521.867 532.895 521.605 532.742 521.391 532.539 521.172 532.336 521.004 532.082 520.887 531.781 520.766 531.48 520.707 531.137 520.707 530.746ZM527.984 532.996V519.445H529.59V525.484C529.793 525.305 530.016 525.117 530.266 524.926 530.512 524.734 530.781 524.559 531.07 524.402 531.355 524.242 531.656 524.113 531.973 524.012 532.289 523.91 532.617 523.859 532.953 523.859 533.363 523.859 533.73 523.938 534.059 524.09 534.391 524.25 534.672 524.465 534.91 524.742 535.148 525.023 535.328 525.359 535.457 525.75 535.582 526.145 535.648 526.578 535.648 527.059V532.996H534.039V527.191C534.039 526.867 533.992 526.578 533.898 526.328 533.805 526.082 533.68 525.875 533.52 525.711 533.359 525.543 533.164 525.418 532.938 525.336 532.715 525.254 532.473 525.215 532.211 525.215 531.738 525.215 531.289 525.336 530.867 525.586 530.441 525.836 530.02 526.164 529.59 526.57V532.996ZM545.695 531.324V532.234C545.48 532.387 545.234 532.52 544.953 532.637 544.672 532.75 544.387 532.848 544.086 532.926 543.785 533.008 543.488 533.066 543.188 533.105 542.883 533.145 542.602 533.164 542.344 533.164 541.77 533.164 541.223 533.07 540.703 532.879 540.184 532.688 539.73 532.406 539.34 532.031 538.953 531.66 538.645 531.199 538.41 530.648 538.18 530.098 538.066 529.465 538.066 528.746 538.066 528.012 538.188 527.34 538.434 526.734 538.676 526.133 539.004 525.617 539.418 525.191 539.828 524.766 540.305 524.438 540.844 524.207 541.383 523.977 541.945 523.859 542.539 523.859 543.02 523.859 543.465 523.941 543.879 524.102 544.293 524.262 544.656 524.504 544.965 524.824 545.27 525.148 545.512 525.551 545.684 526.031 545.859 526.512 545.949 527.074 545.949 527.719 545.949 527.848 545.941 528.004 545.93 528.184 545.918 528.363 545.898 528.551 545.863 528.746H539.738C539.738 529.234 539.824 529.668 539.996 530.047 540.168 530.43 540.41 530.75 540.723 531.012 541.035 531.273 541.41 531.473 541.844 531.609 542.281 531.742 542.758 531.812 543.281 531.812 543.414 531.812 543.57 531.805 543.758 531.793 543.941 531.781 544.141 531.762 544.355 531.727 544.57 531.691 544.793 531.645 545.027 531.578 545.258 531.516 545.48 531.43 545.695 531.324ZM539.738 527.75H544.426C544.426 527.328 544.367 526.953 544.246 526.633 544.129 526.305 543.969 526.031 543.766 525.812 543.562 525.594 543.324 525.426 543.059 525.316 542.789 525.203 542.504 525.145 542.199 525.145 541.863 525.145 541.543 525.215 541.246 525.352 540.945 525.492 540.684 525.68 540.461 525.918 540.238 526.152 540.062 526.43 539.934 526.746 539.805 527.062 539.738 527.398 539.738 527.75ZM554.285 521.914V532.996H552.629V520.602H556.012C556.668 520.602 557.273 520.688 557.836 520.852 558.395 521.02 558.883 521.262 559.297 521.586 559.711 521.906 560.039 522.305 560.273 522.781 560.512 523.258 560.629 523.809 560.629 524.434 560.629 524.879 560.57 525.293 560.453 525.676 560.336 526.055 560.168 526.402 559.957 526.711 559.746 527.02 559.5 527.297 559.219 527.535 558.934 527.777 558.629 527.977 558.301 528.141 557.977 528.305 557.637 528.426 557.281 528.512 556.926 528.598 556.57 528.641 556.215 528.641 556.145 528.641 556.074 528.637 555.996 528.633 555.918 528.633 555.82 528.621 555.707 528.605L555.824 527.336C555.926 527.355 556.016 527.363 556.09 527.367 556.16 527.367 556.234 527.367 556.309 527.367 556.668 527.367 557.008 527.316 557.324 527.207 557.645 527.094 557.922 526.93 558.164 526.703 558.402 526.477 558.594 526.195 558.73 525.852 558.871 525.512 558.941 525.109 558.941 524.641 558.941 524.16 558.863 523.746 558.715 523.402 558.566 523.059 558.352 522.777 558.07 522.555 557.789 522.336 557.449 522.176 557.047 522.07 556.645 521.969 556.191 521.914 555.691 521.914ZM566.059 533.164C565.395 533.164 564.801 533.047 564.281 532.809 563.766 532.574 563.328 532.254 562.969 531.852 562.613 531.453 562.336 530.984 562.148 530.453 561.957 529.922 561.863 529.359 561.863 528.766 561.863 528.09 561.984 527.453 562.223 526.859 562.461 526.266 562.797 525.742 563.223 525.297 563.648 524.852 564.152 524.5 564.738 524.242 565.328 523.988 565.965 523.859 566.652 523.859 567.324 523.859 567.918 523.98 568.445 524.219 568.969 524.461 569.41 524.785 569.766 525.191 570.129 525.594 570.398 526.062 570.586 526.598 570.773 527.129 570.867 527.691 570.867 528.277 570.867 528.957 570.746 529.598 570.5 530.191 570.258 530.785 569.922 531.305 569.492 531.746 569.066 532.184 568.559 532.531 567.973 532.785 567.387 533.039 566.75 533.164 566.059 533.164ZM566.414 531.879C566.828 531.879 567.199 531.797 567.535 531.629 567.871 531.465 568.16 531.238 568.398 530.949 568.641 530.66 568.824 530.32 568.957 529.93 569.09 529.535 569.152 529.117 569.152 528.664 569.152 528.219 569.09 527.785 568.961 527.367 568.832 526.945 568.645 526.57 568.398 526.242 568.152 525.914 567.855 525.648 567.496 525.445 567.141 525.246 566.742 525.145 566.297 525.145 565.883 525.145 565.512 525.227 565.176 525.395 564.84 525.559 564.555 525.789 564.312 526.082 564.074 526.371 563.887 526.715 563.758 527.109 563.621 527.504 563.555 527.926 563.555 528.379 563.555 528.824 563.621 529.258 563.75 529.676 563.879 530.098 564.07 530.469 564.312 530.797 564.559 531.125 564.859 531.387 565.211 531.582 565.562 531.781 565.965 531.879 566.414 531.879ZM572.301 524.027H574.078L575.719 530.309 575.973 531.727H576.141L576.43 530.324 578.223 524.301H580.059L581.836 530.309 582.141 531.727H582.309L582.578 530.324 584.234 524.027H585.859L583.02 532.996H581.25L579.543 527.445 579.152 525.891H578.984L578.594 527.445 576.852 532.996H575.094ZM594.781 531.324V532.234C594.57 532.387 594.324 532.52 594.043 532.637 593.766 532.75 593.477 532.848 593.18 532.926 592.879 533.008 592.578 533.066 592.277 533.105 591.977 533.145 591.695 533.164 591.434 533.164 590.859 533.164 590.312 533.07 589.793 532.879 589.273 532.688 588.82 532.406 588.43 532.031 588.043 531.66 587.73 531.199 587.5 530.648 587.27 530.098 587.152 529.465 587.152 528.746 587.152 528.012 587.277 527.34 587.52 526.734 587.766 526.133 588.098 525.617 588.508 525.191 588.918 524.766 589.395 524.438 589.934 524.207 590.469 523.977 591.035 523.859 591.629 523.859 592.109 523.859 592.555 523.941 592.969 524.102 593.383 524.262 593.742 524.504 594.051 524.824 594.359 525.148 594.602 525.551 594.773 526.031 594.949 526.512 595.039 527.074 595.039 527.719 595.039 527.848 595.031 528.004 595.02 528.184 595.012 528.363 594.988 528.551 594.953 528.746H588.828C588.828 529.234 588.914 529.668 589.086 530.047 589.258 530.43 589.504 530.75 589.812 531.012 590.129 531.273 590.504 531.473 590.938 531.609 591.371 531.742 591.852 531.812 592.375 531.812 592.504 531.812 592.66 531.805 592.844 531.793 593.031 531.781 593.234 531.762 593.449 531.727 593.66 531.691 593.883 531.645 594.117 531.578 594.348 531.516 594.57 531.43 594.781 531.324ZM588.828 527.75H593.516C593.516 527.328 593.457 526.953 593.336 526.633 593.219 526.305 593.059 526.031 592.855 525.812 592.652 525.594 592.418 525.426 592.148 525.316 591.883 525.203 591.594 525.145 591.289 525.145 590.953 525.145 590.633 525.215 590.332 525.352 590.035 525.492 589.773 525.68 589.551 525.918 589.328 526.152 589.152 526.43 589.023 526.746 588.895 527.062 588.828 527.398 588.828 527.75ZM597.539 532.996V524.027H598.789L599.047 526.719C599.117 526.578 599.195 526.434 599.281 526.285 599.359 526.133 599.441 525.988 599.527 525.848 599.605 525.707 599.688 525.574 599.766 525.449 599.844 525.328 599.914 525.219 599.977 525.129 600.102 524.953 600.242 524.789 600.395 524.637 600.551 524.48 600.719 524.344 600.898 524.227 601.078 524.109 601.27 524.02 601.473 523.957 601.676 523.891 601.895 523.859 602.125 523.859 602.289 523.859 602.445 523.879 602.59 523.914 602.738 523.953 602.859 524.012 602.957 524.098L602.785 525.602C602.684 525.574 602.582 525.555 602.484 525.547 602.387 525.539 602.289 525.535 602.191 525.535 601.793 525.535 601.445 525.602 601.148 525.73 600.852 525.859 600.586 526.035 600.355 526.258 600.121 526.48 599.91 526.742 599.719 527.039 599.531 527.34 599.34 527.664 599.148 528.008V532.996ZM612.41 533.164C611.742 533.164 611.152 533.047 610.633 532.809 610.113 532.574 609.676 532.254 609.316 531.852 608.957 531.453 608.684 530.984 608.496 530.453 608.309 529.922 608.215 529.359 608.215 528.766 608.215 528.09 608.332 527.453 608.57 526.859 608.812 526.266 609.145 525.742 609.57 525.297 609.996 524.852 610.504 524.5 611.09 524.242 611.676 523.988 612.312 523.859 613 523.859 613.672 523.859 614.27 523.98 614.793 524.219 615.32 524.461 615.762 524.785 616.117 525.191 616.477 525.594 616.75 526.062 616.938 526.598 617.121 527.129 617.211 527.691 617.211 528.277 617.211 528.957 617.09 529.598 616.848 530.191 616.605 530.785 616.273 531.305 615.844 531.746 615.414 532.184 614.906 532.531 614.32 532.785 613.734 533.039 613.098 533.164 612.41 533.164ZM612.766 531.879C613.176 531.879 613.551 531.797 613.887 531.629 614.223 531.465 614.508 531.238 614.75 530.949 614.988 530.66 615.172 530.32 615.309 529.93 615.438 529.535 615.504 529.117 615.504 528.664 615.504 528.219 615.441 527.785 615.312 527.367 615.18 526.945 614.996 526.57 614.75 526.242 614.504 525.914 614.203 525.648 613.848 525.445 613.492 525.246 613.094 525.145 612.645 525.145 612.234 525.145 611.859 525.227 611.523 525.395 611.188 525.559 610.902 525.789 610.66 526.082 610.422 526.371 610.238 526.715 610.102 527.109 609.973 527.504 609.906 527.926 609.906 528.379 609.906 528.824 609.969 529.258 610.102 529.676 610.23 530.098 610.418 530.469 610.66 530.797 610.906 531.125 611.207 531.387 611.559 531.582 611.91 531.781 612.312 531.879 612.766 531.879ZM620.418 532.996V525.316H618.609L618.742 524.402 620.418 524.027V523.59C620.418 523.008 620.508 522.457 620.684 521.934 620.863 521.41 621.117 520.949 621.449 520.559 621.781 520.164 622.191 519.852 622.676 519.621 623.16 519.391 623.715 519.277 624.336 519.277 624.566 519.277 624.809 519.293 625.062 519.328 625.316 519.359 625.562 519.418 625.797 519.496L625.477 520.797 625.305 520.883C625.121 520.785 624.922 520.707 624.703 520.652 624.484 520.59 624.254 520.562 624.004 520.562 623.648 520.562 623.348 520.629 623.098 520.77 622.844 520.906 622.641 521.094 622.484 521.332 622.324 521.566 622.211 521.848 622.137 522.168 622.062 522.488 622.023 522.832 622.023 523.199V524.027H625.09L624.75 525.316H622.023V532.996ZM640.422 530.812V531.805C640.105 532.078 639.762 532.305 639.391 532.484 639.02 532.66 638.645 532.801 638.266 532.902 637.887 533.004 637.523 533.074 637.176 533.109 636.828 533.148 636.523 533.164 636.262 533.164 635.445 533.164 634.684 533.02 633.977 532.73 633.27 532.438 632.656 532.027 632.137 531.5 631.617 530.969 631.207 530.328 630.91 529.582 630.613 528.836 630.465 528 630.465 527.082 630.465 526.395 630.551 525.754 630.719 525.156 630.891 524.559 631.129 524.012 631.434 523.523 631.734 523.031 632.094 522.594 632.512 522.211 632.93 521.828 633.391 521.504 633.891 521.242 634.395 520.98 634.926 520.777 635.488 520.641 636.055 520.504 636.633 520.438 637.227 520.438 637.613 520.438 638.082 520.473 638.629 520.539 639.176 520.613 639.762 520.738 640.387 520.926L640.102 522.398 639.93 522.48C639.312 522.199 638.734 522.004 638.203 521.902 637.668 521.797 637.215 521.746 636.844 521.746 636.168 521.746 635.543 521.875 634.973 522.137 634.406 522.402 633.914 522.762 633.504 523.215 633.09 523.668 632.77 524.195 632.535 524.797 632.305 525.402 632.191 526.047 632.191 526.727 632.191 527.383 632.293 528.016 632.5 528.625 632.703 529.238 633.008 529.781 633.41 530.25 633.809 530.723 634.305 531.102 634.891 531.383 635.477 531.668 636.152 531.812 636.914 531.812 637.133 531.812 637.375 531.797 637.641 531.77 637.902 531.742 638.188 531.691 638.484 531.613 638.785 531.535 639.098 531.434 639.426 531.309 639.75 531.18 640.082 531.016 640.422 530.812ZM646.281 533.164C645.617 533.164 645.023 533.047 644.508 532.809 643.988 532.574 643.551 532.254 643.191 531.852 642.832 531.453 642.559 530.984 642.371 530.453 642.18 529.922 642.086 529.359 642.086 528.766 642.086 528.09 642.207 527.453 642.445 526.859 642.688 526.266 643.02 525.742 643.445 525.297 643.871 524.852 644.379 524.5 644.965 524.242 645.551 523.988 646.188 523.859 646.875 523.859 647.547 523.859 648.145 523.98 648.668 524.219 649.191 524.461 649.633 524.785 649.992 525.191 650.352 525.594 650.621 526.062 650.809 526.598 650.996 527.129 651.086 527.691 651.086 528.277 651.086 528.957 650.965 529.598 650.723 530.191 650.48 530.785 650.145 531.305 649.719 531.746 649.289 532.184 648.781 532.531 648.195 532.785 647.605 533.039 646.969 533.164 646.281 533.164ZM646.637 531.879C647.051 531.879 647.422 531.797 647.758 531.629 648.094 531.465 648.383 531.238 648.621 530.949 648.859 530.66 649.047 530.32 649.18 529.93 649.312 529.535 649.379 529.117 649.379 528.664 649.379 528.219 649.312 527.785 649.184 527.367 649.055 526.945 648.867 526.57 648.621 526.242 648.375 525.914 648.074 525.648 647.719 525.445 647.367 525.246 646.965 525.145 646.52 525.145 646.109 525.145 645.734 525.227 645.398 525.395 645.062 525.559 644.777 525.789 644.535 526.082 644.297 526.371 644.109 526.715 643.977 527.109 643.848 527.504 643.781 527.926 643.781 528.379 643.781 528.824 643.844 529.258 643.973 529.676 644.102 530.098 644.289 530.469 644.535 530.797 644.781 531.125 645.078 531.387 645.434 531.582 645.785 531.781 646.188 531.879 646.637 531.879ZM659.75 530.441V525.566C659.332 525.387 658.957 525.273 658.621 525.223 658.289 525.172 658.016 525.145 657.801 525.145 657.301 525.145 656.852 525.227 656.461 525.395 656.07 525.559 655.738 525.793 655.469 526.094 655.199 526.391 654.992 526.75 654.852 527.168 654.707 527.586 654.637 528.047 654.637 528.547 654.637 528.984 654.699 529.402 654.82 529.797 654.938 530.191 655.105 530.539 655.324 530.836 655.543 531.137 655.809 531.375 656.121 531.551 656.43 531.723 656.777 531.812 657.16 531.812 657.617 531.812 658.062 531.688 658.492 531.445 658.922 531.199 659.344 530.863 659.75 530.441ZM659.75 524.082V519.445H661.355V532.996H660.102L659.848 531.441C659.656 531.621 659.445 531.812 659.207 532.012 658.969 532.211 658.707 532.395 658.422 532.57 658.133 532.742 657.82 532.883 657.488 532.996 657.152 533.109 656.793 533.164 656.414 533.164 655.875 533.164 655.391 533.047 654.961 532.805 654.531 532.566 654.168 532.246 653.871 531.848 653.57 531.453 653.344 530.996 653.184 530.484 653.027 529.973 652.949 529.438 652.949 528.883 652.949 528.156 653.078 527.488 653.344 526.871 653.605 526.254 653.961 525.727 654.422 525.281 654.879 524.836 655.414 524.488 656.027 524.238 656.641 523.984 657.301 523.859 658.008 523.859 658.344 523.859 658.66 523.883 658.957 523.934 659.254 523.98 659.52 524.031 659.75 524.082ZM671.402 531.324V532.234C671.188 532.387 670.941 532.52 670.664 532.637 670.383 532.75 670.094 532.848 669.797 532.926 669.5 533.008 669.199 533.066 668.895 533.105 668.594 533.145 668.312 533.164 668.055 533.164 667.48 533.164 666.93 533.07 666.41 532.879 665.895 532.688 665.441 532.406 665.051 532.031 664.66 531.66 664.352 531.199 664.121 530.648 663.891 530.098 663.773 529.465 663.773 528.746 663.773 528.012 663.898 527.34 664.141 526.734 664.387 526.133 664.715 525.617 665.125 525.191 665.539 524.766 666.016 524.438 666.555 524.207 667.09 523.977 667.656 523.859 668.246 523.859 668.727 523.859 669.176 523.941 669.59 524.102 670.004 524.262 670.367 524.504 670.672 524.824 670.98 525.148 671.219 525.551 671.395 526.031 671.57 526.512 671.656 527.074 671.656 527.719 671.656 527.848 671.652 528.004 671.641 528.184 671.629 528.363 671.605 528.551 671.574 528.746H665.449C665.449 529.234 665.535 529.668 665.707 530.047 665.879 530.43 666.121 530.75 666.438 531.012 666.746 531.273 667.121 531.473 667.555 531.609 667.988 531.742 668.469 531.812 668.992 531.812 669.121 531.812 669.281 531.805 669.469 531.793 669.652 531.781 669.852 531.762 670.066 531.727 670.281 531.691 670.504 531.645 670.734 531.578 670.965 531.516 671.188 531.43 671.402 531.324ZM665.449 527.75H670.137C670.137 527.328 670.074 526.953 669.957 526.633 669.84 526.305 669.676 526.031 669.473 525.812 669.27 525.594 669.035 525.426 668.766 525.316 668.5 525.203 668.215 525.145 667.91 525.145 667.57 525.145 667.254 525.215 666.957 525.352 666.656 525.492 666.395 525.68 666.172 525.918 665.949 526.152 665.773 526.43 665.641 526.746 665.512 527.062 665.449 527.398 665.449 527.75ZM665.449 527.75" fill="#ffffff"/>
</g>
<g clip-path="url(#clip_3)">
<path d="M406.734 401.301H157.582C153.961 401.301 151.023 404.238 151.023 407.855V555.383C151.023 559.004 153.961 561.941 157.582 561.941H406.734C410.355 561.941 413.293 559.004 413.293 555.383V407.855C413.293 404.238 410.355 401.301 406.734 401.301ZM400.18 535.711H164.137V414.414H400.18ZM400.18 535.711" fill="#bf2051"/>
</g>
<path d="M252.652 555.383H311.664V594.723H252.652Z" fill="#bf2051"/>
<path d="M229.703 588.168H334.613V598H229.703Z" fill="#bf2051"/>
<path d="M256.992 504.199 208.668 482.734V474.512L256.992 450.328V464.523L227.355 478.051 256.992 490.094ZM256.992 504.199" fill="#bf2051"/>
<path d="M303.695 441.816 277.641 513.664H261.102L287.156 441.816ZM303.695 441.816" fill="#bf2051"/>
<path d="M307.328 490.094 336.965 478.051 307.328 464.523V450.328L355.652 474.512V482.734L307.328 504.195ZM307.328 490.094" fill="#bf2051"/>
</g>
</svg>
